<?xml version="1.0" encoding="utf-8"?>
<!-- Generator: Adobe Illustrator 22.0.0, SVG Export Plug-In . SVG Version: 6.00 Build 0)  -->
<svg version="1.1" id="Layer_1" xmlns="http://www.w3.org/2000/svg" xmlns:xlink="http://www.w3.org/1999/xlink" x="0px" y="0px"
	 viewBox="0 0 738 801" style="enable-background:new 0 0 738 801;" xml:space="preserve">
<style type="text/css">
	.st0{fill:url(#logo_1_);}
</style>
<linearGradient id="logo_1_" gradientUnits="userSpaceOnUse" x1="33.1241" y1="395.4437" x2="720.3747" y2="395.4437">
	<stop  offset="0" style="stop-color:#31225B"/>
	<stop  offset="6.287035e-02" style="stop-color:#36225B"/>
	<stop  offset="0.1383" style="stop-color:#41235C"/>
	<stop  offset="0.2203" style="stop-color:#52255D"/>
	<stop  offset="0.3069" style="stop-color:#6A285E"/>
	<stop  offset="0.3972" style="stop-color:#892D5F"/>
	<stop  offset="0.4905" style="stop-color:#B23360"/>
	<stop  offset="0.5847" style="stop-color:#E93C62"/>
	<stop  offset="0.5895" style="stop-color:#EF3D62"/>
</linearGradient>
<path id="logo" class="st0" d="M701,738.3c-31.4,0-46.2-31.6-59.8-66.8c-1.5-4-3-7.7-4.4-11.1c-8-23.6-122.1-361-123.2-364.3
	c-0.4-1.3-43.8-133.7-66.2-198.3c-2.3-6.7-4.4-12.8-6.3-18.3c-16.7-49-22.3-65.6-66.5-65.6c-33.5,0-74,0.3-74.4,0.3
	c-8.2,0.1-15.5,5.3-18.2,13.1L174.5,341L34.2,751.4c-2.4,7-0.6,14.7,4.5,19.9c3.7,3.7,8.7,5.8,13.8,5.8c2,0,4.1-0.3,6-1
	c4.1-1.3,100.3-33.9,137.1-125.2c8.8-21.8,26.2-72.7,53.1-155.2c47.6,49,134.2,108.8,243.9,113.6c13,39.2,20.3,61,22.2,66.5l0.2,0.7
	C524,701.4,551,777,617.8,777H701c10.7,0,19.4-8.7,19.4-19.4C720.4,746.9,711.7,738.3,701,738.3z M316.9,282.3
	c4.6-14.7,9.2-29.1,13.6-43.2l5.7-18.1c4.4-13.9,8.9-28.1,13.3-42.3c20.7,61,44,129.4,44.1,129.4c0.1,0.2,25.7,78.3,53.4,162.7
	c-116.9-7-159.5-39.9-172.8-54.4L316.9,282.3z"/>
</svg>
